<?xml version="1.0" encoding="utf-8"?>
<!-- Generator: Adobe Illustrator 17.0.0, SVG Export Plug-In . SVG Version: 6.00 Build 0)  -->
<!DOCTYPE svg PUBLIC "-//W3C//DTD SVG 1.1//EN" "http://www.w3.org/Graphics/SVG/1.1/DTD/svg11.dtd">
<svg version="1.1" id="Laag_2" xmlns="http://www.w3.org/2000/svg" xmlns:xlink="http://www.w3.org/1999/xlink" x="0px" y="0px"
	 width="1710.159px" height="641.872px" viewBox="0 0 1710.159 641.872" enable-background="new 0 0 1710.159 641.872"
	 xml:space="preserve">
<g>
	<g>
		<rect x="607.782" y="156.53" fill="#3CA1DA" width="467.058" height="45.055"/>
		<rect x="1074.84" y="156.53" fill="#B63388" width="491.962" height="45.055"/>
		<rect x="1632.904" y="156.53" fill="#E42C2E" width="77.255" height="45.055"/>
		<rect x="82.328" y="156.53" fill="#E42C2E" width="337.805" height="45.055"/>
	</g>
	<g>
		<rect x="674.628" y="289.197" fill="#B63388" width="507.506" height="45.055"/>
		<rect x="156.171" y="289.197" fill="#F19019" width="519.52" height="45.055"/>
	</g>
	<rect x="156.564" y="418.9" fill="#B63388" width="391.977" height="44.271"/>
	<rect x="0" y="27.104" fill="#B63388" width="305.265" height="45.055"/>
</g>
<g>
	<path fill="#FFFFFF" d="M512.723,269.055c-11.4,10.679-24.514,19.239-39.352,25.69c-16.235,7.059-33.649,10.588-52.233,10.588
		c-18.353,0-35.647-3.529-51.882-10.588s-30.413-16.642-42.528-28.764c-12.122-12.115-21.707-26.294-28.765-42.528
		c-7.059-16.235-10.588-33.646-10.588-52.235c0-18.351,3.529-35.702,10.588-52.058c7.059-16.351,16.644-30.583,28.765-42.705
		c12.115-12.115,26.292-21.705,42.528-28.764s33.529-10.588,51.882-10.588c18.584,0,35.998,3.529,52.233,10.588
		c14.947,6.499,28.146,15.143,39.604,25.928l-31.266,36.931c-0.232-0.249-0.465-0.496-0.7-0.742
		c-7.633-7.996-16.554-14.41-26.768-19.236c-10.212-4.818-21.191-7.234-32.927-7.234c-11.741,0-22.72,2.416-32.932,7.234
		c-10.214,4.825-19.136,11.239-26.768,19.236c-7.633,8.001-13.676,17.354-18.138,28.059c-4.462,10.709-6.69,21.826-6.69,33.351
		c0,11.768,2.228,22.941,6.69,33.529c4.462,10.588,10.505,19.94,18.138,28.059c7.633,8.117,16.554,14.591,26.768,19.411
		c10.212,4.825,21.191,7.234,32.932,7.234c11.736,0,22.715-2.409,32.927-7.234c10.214-4.82,19.136-11.295,26.768-19.411
		c0.221-0.235,0.44-0.471,0.658-0.708L512.723,269.055z"/>
	<path fill="#FFFFFF" d="M403.336,611.599H301.492V353.252h101.844c36.88,0,67.183,10.826,90.918,32.47
		c12.684,11.531,22.251,25.472,28.714,41.823c6.464,16.356,9.695,34.647,9.695,54.88c0,20.471-3.231,38.883-9.695,55.234
		c-6.462,16.358-16.03,30.297-28.714,41.823c-11.515,10.588-24.971,18.589-40.356,24
		C438.512,608.897,421.655,611.599,403.336,611.599z M350.903,567.836h52.587c9.177,0,18.469-1.06,27.881-3.176
		c9.409-2.118,17.94-6.293,25.588-12.53c7.645-6.232,13.942-14.877,18.882-25.941c4.941-11.057,7.412-25.526,7.412-43.41
		c0-17.878-2.471-32.408-7.412-43.588c-4.941-11.172-11.293-19.82-19.058-25.941c-7.765-6.114-16.356-10.235-25.763-12.353
		c-9.414-2.116-18.591-3.176-27.53-3.176h-52.587V567.836z"/>
	<path fill="#FFFFFF" d="M672.711,305.332c-18.353,0-35.647-3.529-51.882-10.588s-30.413-16.642-42.528-28.764
		c-12.122-12.115-21.707-26.294-28.765-42.528c-7.059-16.235-10.588-33.646-10.588-52.235c0-18.351,3.529-35.702,10.588-52.058
		c7.059-16.351,16.644-30.583,28.765-42.705c12.115-12.115,26.292-21.705,42.528-28.764s33.529-10.588,51.882-10.588
		c18.584,0,35.998,3.529,52.233,10.588c16.235,7.059,30.408,16.649,42.528,28.764c12.117,12.122,21.707,26.354,28.765,42.705
		c7.059,16.356,10.588,33.706,10.588,52.058c0,18.589-3.529,36-10.588,52.235c-7.059,16.234-16.649,30.413-28.765,42.528
		c-12.12,12.122-26.292,21.705-42.528,28.764C708.709,301.803,691.295,305.332,672.711,305.332z M672.887,83.338
		c-11.741,0-22.72,2.416-32.932,7.234c-10.214,4.825-19.136,11.239-26.768,19.236c-7.633,8.001-13.676,17.354-18.138,28.059
		c-4.462,10.709-6.69,21.826-6.69,33.351c0,11.768,2.228,22.941,6.69,33.529c4.462,10.588,10.505,19.94,18.138,28.059
		c7.633,8.117,16.554,14.591,26.768,19.411c10.212,4.825,21.191,7.234,32.932,7.234c11.736,0,22.715-2.409,32.927-7.234
		c10.214-4.82,19.136-11.295,26.768-19.411c7.633-8.118,13.676-17.471,18.138-28.059c4.462-10.588,6.695-21.76,6.695-33.529
		c0-11.525-2.233-22.642-6.695-33.351c-4.462-10.705-10.505-20.058-18.138-28.059c-7.633-7.996-16.554-14.41-26.768-19.236
		C695.602,85.754,684.622,83.338,672.887,83.338z"/>
	<polygon fill="#FFFFFF" points="1015.259,349.88 885.026,502.543 755.147,349.871 755.147,425.212 885.026,578.071 
		965.849,481.014 965.849,611.599 1015.259,611.599 	"/>
	<polygon fill="#FFFFFF" points="803.84,611.599 581.629,349.875 581.629,424.688 703.074,568.541 581.629,568.541 581.629,611.599 
			"/>
</g>
</svg>
